<svg width="156" height="52" viewBox="0 0 156 52" fill="none" xmlns="http://www.w3.org/2000/svg">
<path fill-rule="evenodd" clip-rule="evenodd" d="M72.7616 44.3583V19.9904H76.1159L72.7616 13.716H0.77406C0.38703 13.8619 0 14.1537 0 14.7374V19.8445C0 20.4281 0.38703 20.7199 0.77406 20.7199H24.1249V43.045C24.1249 43.7746 24.6409 44.3583 25.286 44.3583H29.1563C29.8013 44.3583 30.3173 43.7746 30.3173 43.045V20.7199H41.7992V44.2124H61.9248C62.5698 44.2124 63.0859 43.6287 63.0859 42.8991V39.689C63.0859 38.9594 62.5698 38.3757 61.9248 38.3757H47.8627V31.3718H59.8606C60.5057 31.3718 61.0217 30.7881 61.0217 30.0585V26.9943C61.0217 26.2647 60.5057 25.6811 59.8606 25.6811H47.8627V20.4281H66.5691V42.7532C66.5691 43.4828 67.0852 44.0664 67.7302 44.0664H72.7616V44.3583Z" fill="#005FEE"/>
<path fill-rule="evenodd" clip-rule="evenodd" d="M85.9212 44.3585L78.8256 30.9342V36.1872L83.212 44.2126V44.3585H85.9212Z" fill="#005FEE"/>
<path fill-rule="evenodd" clip-rule="evenodd" d="M84.2434 13.8622C83.5984 13.8622 83.0824 14.4459 83.0824 15.1755V28.3079L89.1458 39.6893V19.9907H95.4673V44.2127H115.464C116.109 44.2127 116.625 43.629 116.625 42.8994V39.6893C116.625 38.9597 116.109 38.376 115.464 38.376H101.402V31.3721H113.4C114.045 31.3721 114.561 30.7884 114.561 30.0588V26.9946C114.561 26.265 114.045 25.6814 113.4 25.6814H101.402V20.4284H125.527V42.7535C125.527 43.4831 126.043 44.0667 126.688 44.0667H130.558C131.203 44.0667 131.719 43.4831 131.719 42.7535V20.7202H155.07C155.586 20.7202 155.844 20.2825 155.844 19.8448V14.7377C155.844 14.154 155.457 13.8622 155.07 13.8622H84.2434Z" fill="#005FEE"/>
<path d="M96.1127 51.3623H88.8881L88.6301 50.7786L79.5994 33.7065V51.3623H72.1169V19.2608H79.2124L79.5994 19.8445L88.6301 36.9166V19.2608H96.1127V51.3623ZM89.6622 49.7572H94.6936V20.72H89.9202V42.3155L78.4383 20.72H73.407V49.7572H78.1803V28.3076L89.6622 49.7572Z" fill="#005FEE"/>
<path d="M23.8669 6.71201V2.18863H22.4478V1.31313H26.1891V2.18863H24.77V6.71201H23.8669Z" fill="#005FEE"/>
<path d="M26.8342 6.71213V1.31325H30.3175V2.18875H27.7373V3.35607H30.1885V4.37748H27.7373V5.83664H30.4465V6.71213H26.8342Z" fill="#005FEE"/>
<path d="M31.6075 1.31313H34.9618V6.71201H34.0587V2.18863H32.6396V4.52328C32.6396 5.25286 32.6396 5.6906 32.6396 5.83652C32.6396 6.12835 32.5106 6.27427 32.3816 6.42018C32.2526 6.5661 31.9946 6.71201 31.7366 6.71201C31.6075 6.71201 31.4785 6.71201 31.0915 6.71201V5.83652H31.3495C31.6075 5.83652 31.7366 5.83652 31.7366 5.69061C31.8656 5.69061 31.8656 5.54469 31.8656 5.25286V1.31313H31.6075Z" fill="#005FEE"/>
<path d="M35.9939 6.71213V1.31325H39.4772V2.18875H36.897V3.35607H39.3482V4.37748H36.897V5.83664H39.6062V6.71213H35.9939Z" fill="#005FEE"/>
<path d="M40.3809 1.31325H41.284V3.64791C41.542 3.64791 41.671 3.50199 41.671 3.50199C41.8 3.35607 41.8 3.06424 42.058 2.62649C42.445 2.04283 42.5741 1.60508 42.8321 1.45917C43.0901 1.31325 43.3481 1.31325 43.7351 1.31325H43.8642V2.18875H43.7351C43.4771 2.18875 43.3481 2.18875 43.3481 2.33466C43.2191 2.33466 43.2191 2.48058 43.0901 2.62649C43.0901 2.77241 42.9611 2.91833 42.8321 3.35607C42.8321 3.50199 42.7031 3.64791 42.7031 3.79382C42.5741 3.93974 42.5741 4.08565 42.316 4.08565C42.5741 4.08565 42.7031 4.23157 42.8321 4.5234C42.9611 4.66932 43.0901 4.96115 43.3481 5.3989L43.9932 6.85805H42.8321L42.316 5.3989C42.316 5.3989 42.316 5.3989 42.316 5.25298C42.316 5.25298 42.316 5.10706 42.187 4.96115C42.058 4.66932 41.929 4.5234 41.929 4.5234C41.671 4.37748 41.542 4.37748 41.413 4.37748V6.71214H40.5099V1.31325H40.3809Z" fill="#005FEE"/>
<path d="M44.2507 4.08553C44.2507 3.50187 44.3798 3.06412 44.5088 2.77229C44.6378 2.48046 44.7668 2.18863 44.8958 2.04271C45.1538 1.75088 45.2828 1.60497 45.5408 1.45905C45.7989 1.31313 46.1859 1.31313 46.5729 1.31313C47.218 1.31313 47.863 1.60497 48.2501 2.04271C48.6371 2.48046 48.8951 3.21004 48.8951 4.08553C48.8951 4.96103 48.6371 5.69061 48.2501 6.12836C47.863 6.5661 47.218 6.85794 46.5729 6.85794C45.9279 6.85794 45.2828 6.5661 44.8958 6.12836C44.5088 5.54469 44.2507 4.96103 44.2507 4.08553ZM45.2828 4.08553C45.2828 4.6692 45.4118 5.10695 45.6699 5.54469C45.9279 5.69061 46.1859 5.83652 46.5729 5.83652C46.96 5.83652 47.218 5.69061 47.476 5.39878C47.734 5.10695 47.863 4.6692 47.863 3.93962C47.863 3.35596 47.734 2.91821 47.476 2.62638C47.218 2.33454 46.96 2.18863 46.5729 2.18863C46.1859 2.18863 45.7989 2.33454 45.6699 2.62638C45.5409 2.91821 45.2828 3.35596 45.2828 4.08553Z" fill="#005FEE"/>
<path d="M49.6686 6.71213V1.31325H51.0877L51.9908 4.96114L52.8938 1.31325H54.3129V6.71213H53.4099V2.48058L52.5068 6.71213H51.6037L50.7007 2.48058V6.71213H49.6686Z" fill="#005FEE"/>
<path d="M54.7002 1.31313H55.7323L56.8934 4.08553L57.7965 1.31313H58.8286L57.2804 5.39877C57.0224 5.83652 56.8934 6.27427 56.7644 6.42018C56.6354 6.71202 56.3774 6.71201 56.1193 6.71201C55.8613 6.71201 55.6033 6.71201 55.4743 6.71201V5.98244C55.6033 5.98244 55.7323 5.98244 55.8613 5.98244C56.1193 5.98244 56.2484 5.98244 56.3774 5.83652C56.5064 5.6906 56.5064 5.54469 56.6354 5.25286L54.7002 1.31313Z" fill="#005FEE"/>
<path d="M59.3444 6.71201V1.31313H60.2474V3.50187H62.1826V1.31313H63.2147V6.71201H62.3116V4.37736H60.3764V6.71201H59.3444Z" fill="#005FEE"/>
<path d="M64.1181 6.71213V1.31325H65.0212V6.71213H64.1181Z" fill="#005FEE"/>
<path d="M66.0529 1.31313H66.956V3.64779C67.214 3.64779 67.343 3.50187 67.343 3.50187C67.472 3.35596 67.472 3.06412 67.7301 2.62638C67.9881 2.04271 68.1171 1.60497 68.3751 1.45905C68.6331 1.31313 68.8911 1.31313 69.2782 1.31313H69.4072V2.18863H69.2782C69.0202 2.18863 68.8911 2.18863 68.8911 2.33454C68.7621 2.33454 68.7621 2.48046 68.6331 2.62638C68.6331 2.77229 68.5041 2.91821 68.3751 3.35596C68.3751 3.50187 68.2461 3.64779 68.2461 3.7937C68.1171 3.93962 68.1171 4.08553 67.8591 4.08553C68.1171 4.08553 68.2461 4.23145 68.3751 4.52328C68.5041 4.6692 68.6331 4.96103 68.8911 5.39878L69.5362 6.85794H68.3751L67.8591 5.39878C67.8591 5.39878 67.8591 5.39878 67.8591 5.25286C67.8591 5.25286 67.8591 5.10695 67.7301 4.96103C67.601 4.6692 67.472 4.52328 67.472 4.52328C67.214 4.37737 67.085 4.37737 66.956 4.37737V6.71202H66.0529V1.31313Z" fill="#005FEE"/>
<path d="M74.31 6.71201H73.2779L72.8909 5.54469H70.9557L70.5687 6.71201H69.5366L71.3428 1.31313H72.3749L74.31 6.71201ZM72.6329 4.6692L71.9878 2.62637L71.3428 4.6692H72.6329Z" fill="#005FEE"/>
<path d="M74.9549 1.31325H75.858V5.83664H77.6642V1.31325H78.6962V5.83664H79.0833V7.87946H78.3092V6.71213H74.9549V1.31325Z" fill="#005FEE"/>
<path d="M79.7281 6.71201V1.31313H80.6312V6.71201H79.7281Z" fill="#005FEE"/>
<path d="M81.6632 1.31324H82.5663V4.96114L84.5015 1.31324H85.4045V6.71213H84.5015V3.21015L82.5663 6.71213H81.6632V1.31324ZM84.1144 0H84.5015C84.5015 0.291832 84.3724 0.583663 84.2434 0.729579C84.1144 0.875495 83.8564 1.02141 83.5984 1.02141C83.3404 1.02141 83.0823 0.875495 82.9533 0.729579C82.5663 0.583663 82.5663 0.291832 82.4373 0H82.8243C82.8243 0.145916 82.9533 0.291832 82.9533 0.437747C83.0823 0.583663 83.2114 0.583663 83.3404 0.583663C83.4694 0.583663 83.5984 0.583663 83.7274 0.437747C83.9854 0.291832 84.1144 0.145916 84.1144 0Z" fill="#005FEE"/>
<path d="M86.437 6.71213V1.31325H87.3401V3.50199H89.2752V1.31325H90.1783V6.71213H89.2752V4.37748H87.3401V6.71213H86.437Z" fill="#005FEE"/>
<path d="M95.4677 6.71201H94.4356L94.0486 5.54469H92.1134L91.7264 6.71201H90.6943L92.5004 1.31313H93.5325L95.4677 6.71201ZM93.6615 4.6692L93.0165 2.62637L92.3714 4.6692H93.6615Z" fill="#005FEE"/>
<path d="M97.919 1.31325H98.8221V3.6479C99.0801 3.6479 99.2091 3.50199 99.2091 3.50199C99.2091 3.50199 99.4671 3.06424 99.5961 2.62649C99.8542 2.04283 99.9832 1.751 100.241 1.60508C100.499 1.45917 100.757 1.45917 101.144 1.45917H101.273V2.33466H101.144C100.886 2.33466 100.757 2.33466 100.757 2.48058C100.628 2.48058 100.628 2.62649 100.499 2.77241C100.499 2.91832 100.37 3.06424 100.241 3.50199C100.241 3.6479 100.112 3.79382 100.112 3.93973C99.9832 4.08565 99.9832 4.23156 99.7251 4.23156C99.9832 4.23156 100.112 4.37748 100.241 4.66931C100.37 4.81523 100.499 5.10706 100.757 5.5448L101.402 7.00396H100.241L99.7251 5.5448C99.7251 5.5448 99.7251 5.5448 99.7251 5.39889C99.7251 5.39889 99.7251 5.25297 99.5961 5.10706C99.4671 4.81523 99.3381 4.66931 99.3381 4.66931C99.0801 4.37748 98.9511 4.37748 98.8221 4.37748V6.71213H97.919V1.31325Z" fill="#005FEE"/>
<path d="M101.66 4.08567C101.66 3.50201 101.789 3.06426 101.918 2.77243C102.047 2.4806 102.176 2.18876 102.305 2.04285C102.434 1.89693 102.692 1.6051 102.95 1.6051C103.208 1.45919 103.595 1.45919 103.982 1.45919C104.627 1.45919 105.272 1.75102 105.659 2.18876C106.046 2.62651 106.304 3.35609 106.304 4.23159C106.304 5.10708 106.046 5.83666 105.659 6.27441C105.272 6.71216 104.627 7.00399 103.982 7.00399C103.337 7.00399 102.692 6.71216 102.305 6.27441C101.918 5.54483 101.66 4.96116 101.66 4.08567ZM102.692 4.08567C102.692 4.66933 102.821 5.10708 103.079 5.54483C103.337 5.69074 103.595 5.83666 103.982 5.83666C104.369 5.83666 104.627 5.69074 104.885 5.39891C105.143 5.10708 105.272 4.66933 105.272 3.93975C105.272 3.35609 105.143 2.91834 104.885 2.62651C104.627 2.33468 104.369 2.18876 103.982 2.18876C103.595 2.18876 103.208 2.33468 103.079 2.62651C102.821 2.91834 102.692 3.35609 102.692 4.08567Z" fill="#005FEE"/>
<path d="M107.079 6.71213V1.31325H108.498L109.401 4.96114L110.304 1.31325H111.723V6.71213H110.82V2.48058L109.917 6.71213H109.014L108.111 2.48058V6.71213H107.079Z" fill="#005FEE"/>
<path d="M112.626 1.31325H116.367V6.71213H115.464V2.18875H113.658V6.71213H112.755V1.31325H112.626Z" fill="#005FEE"/>
<path d="M121.657 6.71201H120.625L120.238 5.54469H118.303L117.915 6.71201H116.883L118.69 1.31313H119.722L121.657 6.71201ZM119.98 4.6692L119.335 2.62637L118.69 4.6692H119.98Z" fill="#005FEE"/>
<path d="M122.173 6.71201V1.31313H123.076V3.50187H125.14V1.31313H126.043V6.71201H125.14V4.37736H123.205V6.71201H122.173Z" fill="#005FEE"/>
<path d="M126.947 6.71213V1.31325H127.85V6.71213H126.947Z" fill="#005FEE"/>
<path d="M131.719 6.71207V4.52334H131.59C131.332 4.52334 131.074 4.52334 130.945 4.66925C130.816 4.81517 130.558 5.107 130.3 5.54475L129.655 6.71207H128.494L129.139 5.69066C129.397 5.25292 129.526 4.96108 129.655 4.81517C129.784 4.66925 129.913 4.52334 130.171 4.37742C129.784 4.2315 129.397 4.08559 129.268 3.79376C129.01 3.50193 129.01 3.21009 129.01 2.77235C129.01 2.48051 129.139 2.18868 129.268 1.89685C129.397 1.60502 129.655 1.4591 129.784 1.31319C130.042 1.16727 130.429 1.16727 130.816 1.16727H132.88V6.56616H131.719V6.71207ZM131.719 2.18868H130.945C130.558 2.18868 130.3 2.18868 130.171 2.18868C130.042 2.18868 129.913 2.3346 129.913 2.3346C129.784 2.48051 129.784 2.62643 129.784 2.77235C129.784 2.91826 129.784 3.06418 129.913 3.21009C130.042 3.35601 130.042 3.35601 130.171 3.35601C130.3 3.35601 130.558 3.35601 130.945 3.35601H131.719V2.18868Z" fill="#005FEE"/>
</svg>
